<?xml version="1.0" ?><svg id="Layer_1" style="enable-background:new 0 0 120 120;" version="1.1" viewBox="0 0 120 120" xml:space="preserve" xmlns="http://www.w3.org/2000/svg" xmlns:xlink="http://www.w3.org/1999/xlink"><style type="text/css">
	.st0{fill:#FFC466;}
	.st1{fill:#ADF299;}
	.st2{fill:#66BCFF;}
	.st3{fill:#FFDEA8;}
	.st4{fill:#C9A677;}
	.st5{fill:#92E87E;}
	.st6{fill:#84786A;}
</style><g><g><circle class="st0" cx="38.1" cy="57.4" r="9.6"/><path class="st0" d="M38.1,45.1c0.3,0,0.6-0.3,0.6-0.6v-3.2c0-0.3-0.3-0.6-0.6-0.6s-0.6,0.3-0.6,0.6v3.2    C37.5,44.8,37.8,45.1,38.1,45.1z"/><path class="st0" d="M53,51.3h-3.2c-0.3,0-0.6,0.3-0.6,0.6c0,0.3,0.3,0.6,0.6,0.6H53c0.3,0,0.6-0.3,0.6-0.6    C53.5,51.6,53.3,51.3,53,51.3z"/><path class="st0" d="M26.4,51.3h-3.2c-0.3,0-0.6,0.3-0.6,0.6c0,0.3,0.3,0.6,0.6,0.6h3.2c0.3,0,0.6-0.3,0.6-0.6    C26.9,51.6,26.7,51.3,26.4,51.3z"/><path class="st0" d="M30.6,47.5l0.1,0l0.1,0l0.1,0c0.3-0.2,0.3-0.6,0.1-0.8L29.3,44c-0.1-0.2-0.3-0.2-0.5-0.2c-0.1,0-0.1,0-0.2,0    l-0.1,0l-0.1,0c-0.1,0.1-0.2,0.2-0.2,0.4c0,0.2,0,0.3,0.1,0.4l1.8,2.6C30.3,47.4,30.5,47.5,30.6,47.5z"/><path class="st0" d="M47.5,43.8L47.5,43.8l-0.2,0c-0.2,0-0.4,0.1-0.5,0.3L45,46.6c-0.2,0.3-0.1,0.6,0.2,0.8l0.2,0.1h0.1    c0.2,0,0.4-0.1,0.5-0.3l1.8-2.6c0.1-0.1,0.1-0.3,0.1-0.5C47.8,44,47.7,43.9,47.5,43.8z"/></g><path class="st1" d="M73.6,30.3L73.6,30.3c-0.3,0.6-0.9,0.7-1.1,0.1c-1-2.2-2.5-4.1-4.5-5.4c-2.5-1.7-5.3-2.1-7.9-1.4   c-0.4,0.1-0.6-0.5-0.3-0.9c3.1-3.7,7.4-4.9,10.9-2.6c1.1,0.7,2,1.8,2.7,3C74.7,25.1,74.7,27.9,73.6,30.3z"/><path class="st1" d="M75.6,29.7L75.6,29.7c0.3-0.1,0.5-0.5,0.3-0.8c-0.9-1.3-1.5-3-1.8-4.9c-0.3-2.4,0-4.7,0.7-6.7   c0.1-0.3-0.1-0.6-0.4-0.5c-2.3,1.6-3.6,4.8-3.2,8.2c0.2,1.1,0.5,2.1,1,2.9C72.9,29.3,74.3,30,75.6,29.7z"/><path class="st2" d="M102.1,61.9c0,5.7-1.1,11.2-3.2,16.2c-0.2,0.5-0.4,0.9-0.6,1.4C95.7,85,92,89.9,87.5,93.8   c-7.4,6.4-17,10.2-27.5,10.2c-8.4,0-16.2-2.5-22.8-6.7c-11.6-7.5-19.3-20.5-19.3-35.4c0-1.4,0.1-2.8,0.2-4.1   c2.6,0.8,5.3,1.4,7.8,0.7c1.8-0.5,3.5-1.7,5.4-1.8c4.3-0.4,8,4.5,12.2,3.5c1.5-0.3,2.7-1.4,4-2.1c1.3-0.7,3-1.2,4.3-0.4   c1.2,0.8,1.7,2.4,2.9,3.1c1.6,0.8,3.5-0.3,4.7-1.5c1.3-1.2,2.6-2.7,4.4-2.7c2.3,0,3.8,2.3,6,2.9c3.4,0.9,6.5-2.8,10.1-2.7   c2.6,0.1,4.9,2.2,7.5,2.2c2.2,0,4-1.6,6-2.3c2-0.8,5-0.1,5.2,2c1-0.3,2-0.6,3.1-0.8C102,59.2,102.1,60.6,102.1,61.9z"/><path class="st3" d="M98.8,78.1c-0.7,1.8-1.6,3.5-2.6,5.2c-2.4,4.1-5.6,7.8-9.2,10.9c-7.3,6.1-16.8,9.8-27,9.8   c-8.4,0-16.2-2.5-22.8-6.7c0.2-12,19-21.7,42.1-21.7C86.3,75.6,93,76.5,98.8,78.1z"/><path class="st4" d="M92.3,74.1c0,3.4-0.3,6.8-0.7,9.9H77.5c2.1-6,3.3-12.9,3.3-20.3c0-12.9-3.6-24.4-9.3-31.8h4   C83.8,40.3,92.3,57.8,92.3,74.1z"/><path class="st3" d="M98.2,79.5C95.7,85,92,89.9,87.5,93.8c-3.4-0.8-6.1-2.6-7.3-4.8c-0.7,0.1-1.4,0.2-2.1,0.2   c-3.8,0-6.9-2-6.9-4.5c0-2.5,3.1-4.5,6.9-4.5c1.6,0,3.1,0.4,4.2,1c2.3-1.8,5.7-2.9,9.5-2.9C94.2,78.3,96.4,78.7,98.2,79.5z"/><path class="st4" d="M68.9,86.1c-0.7,2.6-3.2,4.2-5.5,3.6c-2.4-0.6-3.7-3.3-3-5.9c0.7-2.6,4-4,5.5-3.6   C67.5,80.6,69.6,83.4,68.9,86.1z"/><path class="st5" d="M75.2,34.8L75.2,34.8c0,0.9-0.8,1.4-1.5,1c-2.7-2-6-3.3-9.5-3.5c-4.5-0.3-8.8,1.2-12.1,3.9   c-0.5,0.4-1.2-0.2-1-0.9c2.3-6.8,7.9-11.4,14.2-11c2,0.1,4,0.8,5.7,1.8C73.7,27.6,75.3,31.1,75.2,34.8z"/><path class="st5" d="M76.4,36.8L76.4,36.8c0.7,0.6,1.5,0.2,1.5-0.6c-0.1-3.6,0.7-7.1,2.4-10.2c2.2-3.9,5.5-6.4,9.2-7.4   c0.6-0.1,0.5-1.1-0.2-1.4c-6.2-2.6-12.6-1-15.6,4.5c-1,1.8-1.5,3.8-1.6,5.9C71.8,30.9,73.6,34.5,76.4,36.8z"/><path class="st1" d="M77.4,35.1L77.4,35.1c0.4,0.9,0.1,2-0.7,1.9c-3.2-0.2-6.5,0.7-9.4,2.9c-3.7,2.7-6.3,7-7.5,11.9   c-0.2,0.8-1.1,0.6-1.2-0.3c-1.8-8.1,0.2-16.4,5.4-20.2c1.7-1.2,3.5-1.9,5.4-2C72.4,29.1,75.6,31.4,77.4,35.1z"/><path class="st1" d="M76.1,35.6L76.1,35.6c0,1,0.9,1.7,1.6,1.2c3-2.3,6.5-3.6,10.3-3.7c4.9-0.1,9.4,1.8,12.9,5.1   c0.5,0.5,1.3-0.2,1-1c-2.2-8-8.2-13.7-15-13.5c-2.2,0.1-4.3,0.7-6.1,1.8C77.8,27.3,76,31.3,76.1,35.6z"/><g><path class="st6" d="M30.8,34.1c-0.2,0-0.4-0.2-0.4-0.4c0-0.9,0.8-1.8,1.8-2.1c1.1-0.3,2.2,0.2,3,1.3c0.5-0.6,1.3-1.5,2.2-1.4    c0.7,0,1.3,0.6,1.8,1.7c0.1,0.2,0,0.5-0.2,0.6c-0.2,0.1-0.5,0-0.6-0.2c-0.2-0.5-0.6-1.2-1-1.2c-0.7-0.1-1.5,1.1-1.8,1.6    c-0.1,0.1-0.2,0.2-0.4,0.2c-0.2,0-0.3-0.1-0.4-0.2c-0.6-1.1-1.5-1.7-2.4-1.5c-0.7,0.2-1.2,0.8-1.2,1.2    C31.3,33.9,31.1,34.1,30.8,34.1z"/></g><g><path class="st6" d="M40,28.3c-0.2,0-0.3-0.1-0.3-0.3c0-0.7,0.6-1.4,1.4-1.6c0.8-0.2,1.7,0.2,2.3,1c0.3-0.5,1-1.1,1.7-1.1    c0.6,0,1,0.5,1.4,1.3c0.1,0.2,0,0.4-0.2,0.4c-0.2,0.1-0.4,0-0.4-0.2C45.6,27.5,45.3,27,45,27c-0.5,0-1.2,0.9-1.3,1.2    c-0.1,0.1-0.2,0.2-0.3,0.2c-0.1,0-0.2-0.1-0.3-0.2c-0.5-0.9-1.1-1.3-1.8-1.1c-0.5,0.1-0.9,0.6-0.9,1C40.3,28.2,40.2,28.3,40,28.3z    "/></g></g></svg>